<?xml version="1.0" encoding="UTF-8" standalone="no"?>
<!-- Created with Inkscape (http://www.inkscape.org/) -->

<svg
   xmlns:dc="http://purl.org/dc/elements/1.1/"
   xmlns:cc="http://creativecommons.org/ns#"
   xmlns:rdf="http://www.w3.org/1999/02/22-rdf-syntax-ns#"
   xmlns:svg="http://www.w3.org/2000/svg"
   xmlns="http://www.w3.org/2000/svg"
   xmlns:sodipodi="http://sodipodi.sourceforge.net/DTD/sodipodi-0.dtd"
   xmlns:inkscape="http://www.inkscape.org/namespaces/inkscape"
   width="16.497021mm"
   height="21.80595mm"
   viewBox="0 0 16.497021 21.80595"
   version="1.1"
   id="svg8"
   sodipodi:docname="like.svg"
   inkscape:version="0.92.3 (2405546, 2018-03-11)">
  <defs
     id="defs2" />
  <sodipodi:namedview
     id="base"
     pagecolor="#ffffff"
     bordercolor="#666666"
     borderopacity="1.0"
     inkscape:pageopacity="0.0"
     inkscape:pageshadow="2"
     inkscape:zoom="2.8"
     inkscape:cx="72.874979"
     inkscape:cy="18.36054"
     inkscape:document-units="mm"
     inkscape:current-layer="layer1"
     showgrid="false"
     fit-margin-top="2"
     fit-margin-left="0"
     fit-margin-right="0"
     fit-margin-bottom="0"
     inkscape:window-width="1366"
     inkscape:window-height="705"
     inkscape:window-x="-8"
     inkscape:window-y="-8"
     inkscape:window-maximized="1"
     scale-x="0.2" />
  <metadata
     id="metadata5">
    <rdf:RDF>
      <cc:Work
         rdf:about="">
        <dc:format>image/svg+xml</dc:format>
        <dc:type
           rdf:resource="http://purl.org/dc/dcmitype/StillImage" />
        <dc:title></dc:title>
      </cc:Work>
    </rdf:RDF>
  </metadata>
  <g
     inkscape:label="Layer 1"
     inkscape:groupmode="layer"
     id="layer1"
     transform="translate(-109.80208,-125.21312)">
    <g
       transform="matrix(0.13015871,0,0,-0.14620534,103.78349,158.53946)"
       id="layer1-2"
       inkscape:label="Layer 1">
      <g
         transform="matrix(0.26458333,0,0,-0.26458333,41.879763,221.10236)"
         id="g107">
        <g
           id="g14">
          <g
             id="g12">
            <path
               inkscape:connector-curvature="0"
               d="m 469.51,317 c 7.14,-7.97 11.49,-18.49 11.49,-30 0,-24.81 -20.19,-45 -45,-45 H 348.66 C 357.31,215.75 361,180.92 361,165.99 V 151 c 0,-33.08 -26.92,-60 -60,-60 h -15 c -6.88,0 -12.88,4.68 -14.55,11.36 l -8.17,32.69 c -11.45,45.78 -47.8,96.29 -85.42,105.47 C 171.27,223.84 155,212 136,212 H 46 c -8.28,0 -15,6.72 -15,15 v 270 c 0,8.28 6.72,15 15,15 h 90 c 17.89,0 33.37,-10.49 40.62,-25.65 l 51.54,17.18 c 16.85,5.62 34.41,8.47 52.18,8.47 H 406 c 24.81,0 45,-20.19 45,-45 0,-5.85 -1.12,-11.45 -3.16,-16.58 19.08,-5.21 33.16,-22.7 33.16,-43.42 0,-11.51 -4.35,-22.03 -11.49,-30 7.14,-7.97 11.49,-18.49 11.49,-30 0,-11.51 -4.35,-22.03 -11.49,-30 z M 151,467 c 0,8.27 -6.73,15 -15,15 H 61 V 242 h 75 c 8.27,0 15,6.73 15,15 z M 406,332 h 30 c 8.27,0 15,6.73 15,15 0,8.27 -6.73,15 -15,15 h -30 c -8.28,0 -15,6.72 -15,15 0,8.28 6.72,15 15,15 h 30 c 8.27,0 15,6.73 15,15 0,8.27 -6.73,15 -15,15 h -30 c -8.28,0 -15,6.72 -15,15 0,8.28 6.72,15 15,15 8.27,0 15,6.73 15,15 0,8.27 -6.73,15 -15,15 H 280.34 c -14.54,0 -28.91,-2.33 -42.7,-6.93 L 181,456.19 V 270.58 c 23.53,-4.47 46.56,-19.37 67.35,-43.76 20.3,-23.82 36.76,-55.4 44.03,-84.49 L 297.71,121 H 301 c 16.54,0 30,13.46 30,30 v 14.99 c 0,20.14 -6.3,58.77 -14.36,76.01 H 286 c -8.28,0 -15,6.72 -15,15 0,8.28 6.72,15 15,15 h 150 c 8.27,0 15,6.73 15,15 0,8.27 -6.73,15 -15,15 h -30 c -8.28,0 -15,6.72 -15,15 0,8.28 6.72,15 15,15 z"
               id="path10" />
          </g>
        </g>
        <g
           id="g20">
          <g
             id="g18">
            <circle
               cx="106"
               cy="437"
               r="15"
               id="circle16" />
          </g>
        </g>
        <g
           id="g26">
          <g
             id="g24">
            <path
               inkscape:connector-curvature="0"
               d="m 316,0 c -8.284,0 -15,6.716 -15,15 v 31 c 0,8.284 6.716,15 15,15 8.284,0 15,-6.716 15,-15 V 15 C 331,6.716 324.284,0 316,0 Z"
               id="path22" />
          </g>
        </g>
        <g
           id="g32">
          <g
             id="g30">
            <path
               inkscape:connector-curvature="0"
               d="M 252.36,66.148 231.147,44.935 c -5.857,-5.858 -15.355,-5.858 -21.213,0 -5.858,5.858 -5.858,15.355 0,21.213 l 21.213,21.213 c 5.857,5.857 15.356,5.858 21.213,0 5.858,-5.858 5.858,-15.355 0,-21.213 z"
               id="path28" />
          </g>
        </g>
        <g
           id="g38">
          <g
             id="g36">
            <path
               inkscape:connector-curvature="0"
               d="m 422.066,44.935 c -5.857,-5.858 -15.355,-5.858 -21.213,0 L 379.64,66.147 c -5.858,5.858 -5.858,15.355 0,21.213 5.857,5.858 15.355,5.859 21.213,0.001 l 21.213,-21.213 c 5.858,-5.858 5.858,-15.355 0,-21.213 z"
               id="path34" />
          </g>
        </g>
        <g
           id="g40" />
        <g
           id="g42" />
        <g
           id="g44" />
        <g
           id="g46" />
        <g
           id="g48" />
        <g
           id="g50" />
        <g
           id="g52" />
        <g
           id="g54" />
        <g
           id="g56" />
        <g
           id="g58" />
        <g
           id="g60" />
        <g
           id="g62" />
        <g
           id="g64" />
        <g
           id="g66" />
        <g
           id="g68" />
      </g>
    </g>
  </g>
</svg>
